Coordinates
version=1
nRows=11
nColumns=40
inDegrees=yes

Units are S.I. units (second, meters, Newtons, ...)
Angles are in degrees.

endheader
time	pelvis_tilt	pelvis_list	pelvis_rotation	pelvis_tx	pelvis_ty	pelvis_tz	hip_flexion_r	hip_adduction_r	hip_rotation_r	knee_angle_r	knee_angle_r_beta	ankle_angle_r	subtalar_angle_r	mtp_angle_r	hip_flexion_l	hip_adduction_l	hip_rotation_l	knee_angle_l	knee_angle_l_beta	ankle_angle_l	subtalar_angle_l	mtp_angle_l	lumbar_extension	lumbar_bending	lumbar_rotation	arm_flex_r	arm_add_r	arm_rot_r	elbow_flex_r	pro_sup_r	wrist_flex_r	wrist_dev_r	arm_flex_l	arm_add_l	arm_rot_l	elbow_flex_l	pro_sup_l	wrist_flex_l	wrist_dev_l
     20.75564286	     -4.35779497	     -4.62525973	      1.06726796	      0.93215098	      0.93428054	      0.36237563	     32.82819604	     -3.87132477	     -6.35331340	     55.12561290	     55.12561290	      5.37510292	    -13.96055310	      2.17566498	     10.93270163	     -6.51653981	    -10.63423959	     17.51841026	     17.51841026	     12.23558809	     -9.55279379	     -3.07087105	    -11.01975084	      3.67772679	      3.64209122	     -8.62216693	    -13.94021563	     -4.87282274	     32.74626798	     46.35569957	      0.00000000	      0.00000000	     20.65073529	    -20.76995807	    -18.69363832	     55.67385751	     47.50635260	      0.00000000	      0.00000000
     20.76628571	     -4.53404030	     -4.53328218	      0.55972851	      0.93104147	      0.93398827	      0.36361249	     33.20517970	     -3.64053278	     -6.18269577	     53.20532436	     53.20532436	      5.53163430	    -13.55528032	      2.30958126	     10.77324954	     -6.51687821	    -11.00421571	     17.45832475	     17.45832475	     12.29520801	     -9.78290157	     -3.09126048	    -10.97899754	      3.53365902	      3.67245588	     -8.78112352	    -14.00338083	     -4.91423439	     32.67138741	     46.35919172	      0.00000000	      0.00000000	     20.89274360	    -21.06010079	    -18.79822007	     56.05085504	     47.52257727	      0.00000000	      0.00000000
     20.77692857	     -4.53524917	     -4.66771288	      0.05601674	      0.93026912	      0.93408837	      0.36487195	     33.12579183	     -3.20952632	     -6.25468384	     50.84206885	     50.84206885	      5.47284089	    -13.06837148	      1.77977936	     10.13909785	     -6.69028497	    -11.27402245	     16.86598691	     16.86598691	     12.14304651	    -10.07688308	     -3.56977108	    -11.26335943	      3.73424808	      3.70796084	     -8.73662894	    -13.99183285	     -5.58104220	     32.28652262	     46.40113431	      0.00000000	      0.00000000	     19.84961113	    -21.05544578	    -19.42958257	     59.62272217	     47.61043952	      0.00000000	      0.00000000
     20.78757143	     -4.68855997	     -4.70902628	     -0.38338047	      0.92936641	      0.93385916	      0.36611531	     33.13813697	     -2.88517630	     -6.31766641	     48.34978788	     48.34978788	      5.65688042	    -12.43234398	      1.89896172	      9.89870222	     -6.81351751	    -11.55909863	     16.70224536	     16.70224536	     12.22385716	    -10.25240928	     -3.61592254	    -11.26363375	      3.85733662	      3.70364182	     -8.72033103	    -14.07161552	     -5.66576673	     32.19546542	     46.40801527	      0.00000000	      0.00000000	     19.89277811	    -21.21455623	    -19.52944939	     60.00908895	     47.62439937	      0.00000000	      0.00000000
     20.79821429	     -4.71838769	     -4.75269831	     -0.79689296	      0.92870126	      0.93379727	      0.36737324	     32.83490395	     -2.59459853	     -6.52468136	     45.59294997	     45.59294997	      5.80576172	    -11.57695652	      1.86433927	      9.43205073	     -6.92283849	    -11.83570229	     16.39531967	     16.39531967	     12.35501055	    -10.32305152	     -3.76115969	    -11.40827549	      3.92691803	      3.77187932	     -8.64828221	    -14.18313911	     -5.85054223	     31.99651134	     46.42418086	      0.00000000	      0.00000000	     19.74204484	    -21.21408546	    -19.65445983	     60.97345187	     47.64705632	      0.00000000	      0.00000000
     20.80885714	     -4.91813811	     -4.72043943	     -1.17052334	      0.92803954	      0.93341028	      0.36855624	     32.59875268	     -2.35743318	     -6.66435675	     42.68375109	     42.68375109	      6.04772561	    -10.66871828	      1.91620660	      9.21298704	     -6.95801708	    -12.16573361	     16.18397089	     16.18397089	     12.35997544	    -10.39756381	     -3.84044780	    -11.35764819	      4.03634100	      3.80445827	     -8.53809301	    -14.21791003	     -5.98258629	     31.90152993	     46.43452283	      0.00000000	      0.00000000	     19.61632047	    -21.24711804	    -19.70930180	     61.67405546	     47.66116385	      0.00000000	      0.00000000
     20.81950000	     -5.04756690	     -4.67836124	     -1.50911572	      0.92758163	      0.93305385	      0.36975331	     32.12537184	     -2.14705062	     -6.92006550	     39.59837288	     39.59837288	      6.23123703	     -9.55157870	      2.00014838	      8.90228392	     -6.97859624	    -12.46391972	     15.96825415	     15.96825415	     12.44463416	    -10.43452265	     -3.97366097	    -11.36199144	      4.09780865	      3.82174078	     -8.36357326	    -14.27485420	     -6.13395003	     31.82028928	     46.44609533	      0.00000000	      0.00000000	     19.40864548	    -21.23902330	    -19.72004970	     62.42858429	     47.67241348	      0.00000000	      0.00000000
     20.83014286	     -5.14699877	     -4.63371930	     -1.78886743	      0.92736039	      0.93263544	      0.37092872	     31.46889537	     -1.95726132	     -7.27651412	     36.40578494	     36.40578494	      6.37901013	     -8.23025192	      2.11323324	      8.55163368	     -6.99279029	    -12.73161327	     15.75224411	     15.75224411	     12.54605102	    -10.42441354	     -4.14099256	    -11.37239713	      4.18004425	      3.78986721	     -8.12997828	    -14.33040120	     -6.30479775	     31.75105589	     46.45865147	      0.00000000	      0.00000000	     19.09762578	    -21.20582141	    -19.67681122	     63.21039332	     47.67970484	      0.00000000	      0.00000000
     20.84078571	     -5.22490973	     -4.54166436	     -2.02648886	      0.92732239	      0.93214054	      0.37208636	     30.67625306	     -1.81359504	     -7.69724788	     33.19652162	     33.19652162	      6.45532530	     -6.73324611	      2.28595039	      8.19282330	     -6.95604841	    -12.99503587	     15.56921071	     15.56921071	     12.66815141	    -10.38854672	     -4.34845292	    -11.38290295	      4.19973379	      3.70469646	     -7.82189561	    -14.37561693	     -6.49514835	     31.69783750	     46.47186468	      0.00000000	      0.00000000	     18.68931038	    -21.18463338	    -19.57296736	     63.98838923	     47.68241955	      0.00000000	      0.00000000
     20.85142857	     -5.28332520	     -4.36885211	     -2.24091032	      0.92758169	      0.93144531	      0.37327054	     29.80082599	     -1.76706611	     -8.18802465	     30.10443898	     30.10443898	      6.31107844	     -5.06669882	      1.91419734	      7.79687507	     -6.83875756	    -13.28002607	     15.38393241	     15.38393241	     12.69458763	    -10.30886758	     -4.94763319	    -11.39971143	      4.10765535	      3.05794482	     -6.81067104	    -14.20842220	     -7.32344248	     30.96621690	     46.53376029	      0.00000000	      0.00000000	     17.20196565	    -21.59872648	    -19.54796196	     66.29368350	     47.71929496	      0.00000000	      0.00000000
     20.86207143	     -5.36419992	     -4.25840406	     -2.37996670	      0.92802320	      0.93066865	      0.37450790	     28.88696344	     -1.60136679	     -8.61147116	     27.17481844	     27.17481844	      6.22376087	     -3.64488857	      2.44476197	      7.48944821	     -6.78730203	    -13.39450925	     15.32482345	     15.32482345	     12.90551395	    -10.34738038	     -5.05668171	    -11.28793201	      4.15322262	      3.03275645	     -6.54229999	    -14.24267072	     -7.38347992	     31.01146179	     46.53350222	      0.00000000	      0.00000000	     17.02270126	    -21.40474694	    -19.36675415	     66.31140858	     47.70712912	      0.00000000	      0.00000000
